<svg xmlns="http://www.w3.org/2000/svg" xmlns:xlink="http://www.w3.org/1999/xlink" width="500" zoomAndPan="magnify" viewBox="0 0 375 374.999991" height="500" preserveAspectRatio="xMidYMid meet" version="1.0"><defs><g/><clipPath id="11b355c481"><path d="M 117 95.289062 L 240 95.289062 L 240 167.195312 L 117 167.195312 Z M 117 95.289062 " clip-rule="nonzero"/></clipPath><clipPath id="6dba32f6e8"><path d="M 138.125 167.019531 L 218.347656 167.019531 L 218.347656 210.996094 L 138.125 210.996094 Z M 138.125 167.019531 " clip-rule="nonzero"/></clipPath></defs><g clip-path="url(#11b355c481)"><path fill="#ff8036" d="M 173.347656 141.664062 C 171.125 141.664062 169.324219 143.503906 169.324219 145.769531 C 169.324219 148.035156 171.125 149.875 173.347656 149.875 C 175.570312 149.875 177.371094 148.035156 177.371094 145.769531 C 177.371094 143.503906 175.570312 141.664062 173.347656 141.664062 Z M 123.210938 140.261719 C 127.335938 138.632812 129.980469 143.746094 134.160156 141.476562 C 141.910156 137.261719 149.65625 130.261719 155.527344 123.691406 C 160.652344 117.953125 162.238281 116.890625 169.609375 115.914062 C 170.179688 106.109375 170.222656 97.789062 176 95.828125 C 177.621094 95.28125 179.082031 95.316406 180.683594 95.902344 C 186.3125 97.953125 186.359375 106.214844 186.925781 115.933594 C 194.296875 116.910156 195.882812 117.972656 201.007812 123.710938 C 206.875 130.277344 214.621094 137.28125 222.375 141.492188 C 226.554688 143.765625 229.199219 138.652344 233.324219 140.277344 L 233.371094 141.003906 C 227.957031 142.546875 231.433594 143.34375 234.746094 144.734375 C 236.238281 145.359375 238.460938 145.613281 239.390625 148.78125 C 240.734375 153.390625 227.996094 148.921875 226.304688 147.855469 C 222.140625 154.445312 220.140625 159.886719 217.464844 167.300781 C 207.183594 163.703125 202.492188 157.632812 194.835938 149.976562 L 194.796875 157.078125 L 194.792969 161.628906 L 188.109375 161.628906 C 185.210938 156.863281 185.121094 151.730469 186.875 146.230469 C 188.839844 140.082031 192.449219 136.125 192.714844 143.699219 C 192.863281 147.863281 191.382812 153.445312 191.328125 155.207031 C 196.835938 147.730469 201.878906 136.941406 192.199219 130.597656 C 190.671875 129.59375 188.925781 128.871094 187.140625 128.484375 C 188.707031 127.414062 189.738281 125.59375 189.738281 123.527344 C 189.738281 120.234375 187.125 117.566406 183.898438 117.566406 C 180.671875 117.566406 178.054688 120.234375 178.054688 123.527344 C 178.054688 125.664062 179.15625 127.535156 180.8125 128.585938 C 178.371094 129.273438 176.601562 130.660156 174.734375 132.257812 L 174.46875 132.484375 C 174.703125 131.847656 174.832031 131.152344 174.832031 130.429688 C 174.832031 127.179688 172.246094 124.539062 169.054688 124.539062 C 165.867188 124.539062 163.28125 127.179688 163.28125 130.429688 C 163.28125 133.324219 165.328125 135.734375 168.027344 136.226562 C 164.800781 137.589844 161.894531 139.699219 160.523438 143.136719 C 159.382812 145.976562 159.394531 148.886719 160.257812 151.414062 C 153.417969 158.382812 148.6875 163.917969 139.070312 167.285156 C 136.390625 159.871094 134.394531 154.429688 130.230469 147.835938 C 128.535156 148.902344 115.800781 153.371094 117.144531 148.765625 C 118.070312 145.59375 120.296875 145.34375 121.789062 144.714844 C 125.101562 143.324219 128.578125 142.53125 123.164062 140.984375 Z M 179.660156 161.628906 L 178.273438 161.628906 L 178.265625 161.632812 L 178.261719 161.628906 L 161.742188 161.628906 L 161.738281 157.078125 L 161.722656 154.285156 C 164.105469 157.652344 168.320312 159.605469 173.226562 158.378906 C 169.097656 156.234375 164.898438 152.847656 167.824219 145.675781 C 167.84375 150.394531 171.496094 151.75 174.539062 150.808594 C 178.675781 149.523438 182.625 140.515625 186.5625 137.738281 C 185.648438 139.570312 185.152344 140.753906 184.339844 142.660156 C 182.867188 146.132812 180.761719 155.304688 179.660156 161.628906 " fill-opacity="1" fill-rule="evenodd"/></g><g clip-path="url(#6dba32f6e8)"><path fill="#ff8036" d="M 178.261719 210.996094 C 200.382812 210.996094 218.316406 193.0625 218.316406 170.941406 C 218.316406 168.929688 216.683594 167.300781 214.671875 167.300781 L 141.847656 167.300781 C 139.835938 167.300781 138.207031 168.929688 138.207031 170.941406 C 138.207031 193.0625 156.136719 210.996094 178.261719 210.996094 Z M 178.261719 210.996094 " fill-opacity="1" fill-rule="evenodd"/></g><g fill="#000000" fill-opacity="1"><g transform="translate(122.245192, 232.610511)"><g><path d="M 7.609375 0.203125 C 6.328125 0.203125 5.195312 -0.0625 4.21875 -0.59375 C 3.238281 -1.132812 2.472656 -1.9375 1.921875 -3 C 1.367188 -4.070312 1.09375 -5.394531 1.09375 -6.96875 C 1.09375 -8.53125 1.367188 -9.847656 1.921875 -10.921875 C 2.472656 -11.992188 3.238281 -12.796875 4.21875 -13.328125 C 5.195312 -13.859375 6.328125 -14.125 7.609375 -14.125 C 8.953125 -14.125 10.09375 -13.863281 11.03125 -13.34375 C 11.96875 -12.820312 12.632812 -12.023438 13.03125 -10.953125 L 11.03125 -9.71875 L 10.78125 -9.734375 C 10.488281 -10.453125 10.085938 -10.96875 9.578125 -11.28125 C 9.066406 -11.601562 8.410156 -11.765625 7.609375 -11.765625 C 6.453125 -11.765625 5.550781 -11.378906 4.90625 -10.609375 C 4.257812 -9.847656 3.9375 -8.632812 3.9375 -6.96875 C 3.9375 -5.3125 4.257812 -4.097656 4.90625 -3.328125 C 5.550781 -2.566406 6.453125 -2.1875 7.609375 -2.1875 C 9.421875 -2.1875 10.53125 -3.066406 10.9375 -4.828125 L 11.171875 -4.828125 L 13.203125 -3.765625 C 12.828125 -2.441406 12.175781 -1.445312 11.25 -0.78125 C 10.332031 -0.125 9.117188 0.203125 7.609375 0.203125 Z M 7.609375 0.203125 "/></g></g></g><g fill="#000000" fill-opacity="1"><g transform="translate(135.911841, 232.610511)"><g><path d="M 1.515625 0 L 1.515625 -14.734375 L 4.15625 -14.734375 L 4.15625 -9.140625 L 4.359375 -9.09375 C 4.703125 -9.613281 5.128906 -10.007812 5.640625 -10.28125 C 6.148438 -10.5625 6.765625 -10.703125 7.484375 -10.703125 C 9.796875 -10.703125 10.953125 -9.390625 10.953125 -6.765625 L 10.953125 0 L 8.3125 0 L 8.3125 -6.4375 C 8.3125 -7.15625 8.171875 -7.675781 7.890625 -8 C 7.609375 -8.320312 7.164062 -8.484375 6.5625 -8.484375 C 5.820312 -8.484375 5.234375 -8.234375 4.796875 -7.734375 C 4.367188 -7.242188 4.15625 -6.476562 4.15625 -5.4375 L 4.15625 0 Z M 1.515625 0 "/></g></g></g><g fill="#000000" fill-opacity="1"><g transform="translate(148.225169, 232.610511)"><g><path d="M 4.8125 0.203125 C 3.632812 0.203125 2.765625 -0.117188 2.203125 -0.765625 C 1.640625 -1.410156 1.359375 -2.335938 1.359375 -3.546875 L 1.359375 -10.515625 L 4 -10.515625 L 4 -3.875 C 4 -3.238281 4.132812 -2.769531 4.40625 -2.46875 C 4.6875 -2.175781 5.113281 -2.03125 5.6875 -2.03125 C 6.414062 -2.03125 6.984375 -2.269531 7.390625 -2.75 C 7.796875 -3.226562 8 -3.984375 8 -5.015625 L 8 -10.515625 L 10.640625 -10.515625 L 10.640625 0 L 8.109375 0 L 8.109375 -1.546875 L 7.90625 -1.59375 C 7.570312 -0.988281 7.160156 -0.535156 6.671875 -0.234375 C 6.191406 0.0546875 5.570312 0.203125 4.8125 0.203125 Z M 4.8125 0.203125 "/></g></g></g><g fill="#000000" fill-opacity="1"><g transform="translate(160.386007, 232.610511)"><g><path d="M 1.515625 0 L 1.515625 -10.515625 L 4.078125 -10.515625 L 4.078125 -8.953125 L 4.28125 -8.90625 C 4.53125 -9.488281 4.863281 -9.914062 5.28125 -10.1875 C 5.695312 -10.46875 6.195312 -10.609375 6.78125 -10.609375 C 7.382812 -10.609375 7.835938 -10.503906 8.140625 -10.296875 L 7.703125 -8.03125 L 7.5 -7.984375 C 7.320312 -8.054688 7.15625 -8.109375 7 -8.140625 C 6.84375 -8.171875 6.648438 -8.1875 6.421875 -8.1875 C 5.679688 -8.1875 5.117188 -7.925781 4.734375 -7.40625 C 4.347656 -6.882812 4.15625 -6.054688 4.15625 -4.921875 L 4.15625 0 Z M 1.515625 0 "/></g></g></g><g fill="#000000" fill-opacity="1"><g transform="translate(168.62984, 232.610511)"><g><path d="M 6.125 0.203125 C 5.113281 0.203125 4.21875 -0.00390625 3.4375 -0.421875 C 2.65625 -0.847656 2.039062 -1.472656 1.59375 -2.296875 C 1.15625 -3.117188 0.9375 -4.101562 0.9375 -5.25 C 0.9375 -6.40625 1.15625 -7.390625 1.59375 -8.203125 C 2.039062 -9.023438 2.648438 -9.644531 3.421875 -10.0625 C 4.191406 -10.488281 5.078125 -10.703125 6.078125 -10.703125 C 8.296875 -10.703125 9.71875 -9.898438 10.34375 -8.296875 L 8.53125 -7 L 8.328125 -7 C 8.109375 -7.5 7.828125 -7.867188 7.484375 -8.109375 C 7.140625 -8.347656 6.671875 -8.46875 6.078125 -8.46875 C 5.316406 -8.46875 4.722656 -8.203125 4.296875 -7.671875 C 3.867188 -7.148438 3.65625 -6.34375 3.65625 -5.25 C 3.65625 -4.164062 3.867188 -3.359375 4.296875 -2.828125 C 4.734375 -2.304688 5.34375 -2.046875 6.125 -2.046875 C 6.695312 -2.046875 7.179688 -2.195312 7.578125 -2.5 C 7.972656 -2.8125 8.257812 -3.253906 8.4375 -3.828125 L 8.640625 -3.84375 L 10.515625 -2.828125 C 10.242188 -1.929688 9.75 -1.203125 9.03125 -0.640625 C 8.3125 -0.078125 7.34375 0.203125 6.125 0.203125 Z M 6.125 0.203125 "/></g></g></g><g fill="#000000" fill-opacity="1"><g transform="translate(179.465952, 232.610511)"><g><path d="M 1.515625 0 L 1.515625 -14.734375 L 4.15625 -14.734375 L 4.15625 -9.140625 L 4.359375 -9.09375 C 4.703125 -9.613281 5.128906 -10.007812 5.640625 -10.28125 C 6.148438 -10.5625 6.765625 -10.703125 7.484375 -10.703125 C 9.796875 -10.703125 10.953125 -9.390625 10.953125 -6.765625 L 10.953125 0 L 8.3125 0 L 8.3125 -6.4375 C 8.3125 -7.15625 8.171875 -7.675781 7.890625 -8 C 7.609375 -8.320312 7.164062 -8.484375 6.5625 -8.484375 C 5.820312 -8.484375 5.234375 -8.234375 4.796875 -7.734375 C 4.367188 -7.242188 4.15625 -6.476562 4.15625 -5.4375 L 4.15625 0 Z M 1.515625 0 "/></g></g></g><g fill="#000000" fill-opacity="1"><g transform="translate(191.779279, 232.610511)"><g><path d="M 10.8125 -8.6875 L 10.8125 -13.9375 L 13.546875 -13.9375 L 13.546875 0 L 10.8125 0 L 10.8125 -6.34375 L 4.5625 -6.34375 L 4.5625 0 L 1.8125 0 L 1.8125 -13.9375 L 4.5625 -13.9375 L 4.5625 -8.6875 Z M 10.8125 -8.6875 "/></g></g></g><g fill="#000000" fill-opacity="1"><g transform="translate(207.151881, 232.610511)"><g><path d="M 4.8125 0.203125 C 3.632812 0.203125 2.765625 -0.117188 2.203125 -0.765625 C 1.640625 -1.410156 1.359375 -2.335938 1.359375 -3.546875 L 1.359375 -10.515625 L 4 -10.515625 L 4 -3.875 C 4 -3.238281 4.132812 -2.769531 4.40625 -2.46875 C 4.6875 -2.175781 5.113281 -2.03125 5.6875 -2.03125 C 6.414062 -2.03125 6.984375 -2.269531 7.390625 -2.75 C 7.796875 -3.226562 8 -3.984375 8 -5.015625 L 8 -10.515625 L 10.640625 -10.515625 L 10.640625 0 L 8.109375 0 L 8.109375 -1.546875 L 7.90625 -1.59375 C 7.570312 -0.988281 7.160156 -0.535156 6.671875 -0.234375 C 6.191406 0.0546875 5.570312 0.203125 4.8125 0.203125 Z M 4.8125 0.203125 "/></g></g></g><g fill="#000000" fill-opacity="1"><g transform="translate(219.312717, 232.610511)"><g><path d="M 7.34375 0.203125 C 6.007812 0.203125 5.015625 -0.300781 4.359375 -1.3125 L 4.15625 -1.265625 L 4.15625 0 L 1.515625 0 L 1.515625 -14.734375 L 4.15625 -14.734375 L 4.15625 -9.265625 L 4.359375 -9.234375 C 4.710938 -9.734375 5.132812 -10.101562 5.625 -10.34375 C 6.125 -10.582031 6.71875 -10.703125 7.40625 -10.703125 C 8.257812 -10.703125 9.003906 -10.503906 9.640625 -10.109375 C 10.273438 -9.710938 10.769531 -9.101562 11.125 -8.28125 C 11.476562 -7.46875 11.65625 -6.457031 11.65625 -5.25 C 11.65625 -4.050781 11.46875 -3.046875 11.09375 -2.234375 C 10.726562 -1.421875 10.222656 -0.8125 9.578125 -0.40625 C 8.929688 0 8.1875 0.203125 7.34375 0.203125 Z M 6.546875 -2.046875 C 7.316406 -2.046875 7.90625 -2.300781 8.3125 -2.8125 C 8.71875 -3.332031 8.921875 -4.144531 8.921875 -5.25 C 8.921875 -6.363281 8.71875 -7.175781 8.3125 -7.6875 C 7.90625 -8.207031 7.316406 -8.46875 6.546875 -8.46875 C 5.804688 -8.46875 5.21875 -8.203125 4.78125 -7.671875 C 4.34375 -7.140625 4.125 -6.332031 4.125 -5.25 C 4.125 -4.164062 4.34375 -3.359375 4.78125 -2.828125 C 5.21875 -2.304688 5.804688 -2.046875 6.546875 -2.046875 Z M 6.546875 -2.046875 "/></g></g></g></svg>