<svg xmlns="http://www.w3.org/2000/svg" xmlns:xlink="http://www.w3.org/1999/xlink" width="500" zoomAndPan="magnify" viewBox="0 0 375 374.999991" height="500" preserveAspectRatio="xMidYMid meet" version="1.0"><defs><clipPath id="2d58e3b2e1"><path d="M 225 30.738281 L 268 30.738281 L 268 85 L 225 85 Z M 225 30.738281 " clip-rule="nonzero"/></clipPath></defs><rect x="-37.5" width="450" fill="#ffffff" y="-37.499999" height="449.999989" fill-opacity="1"/><rect x="-37.5" width="450" fill="#ffffff" y="-37.499999" height="449.999989" fill-opacity="1"/><path fill="#f8ab94" d="M 258.140625 368.074219 L 254.875 392.066406 L 262.609375 396.96875 C 264.070312 397.914062 266.21875 397.828125 267.679688 396.882812 L 274.726562 392.066406 C 275.242188 392.238281 267.9375 368.589844 267.9375 368.589844 C 267.9375 368.589844 271.375 298.078125 271.460938 298.078125 L 268.28125 263.339844 L 258.570312 261.792969 L 250.578125 300.316406 Z M 258.140625 368.074219 " fill-opacity="1" fill-rule="nonzero"/><path fill="#f8ab94" d="M 238.542969 291.113281 C 238.199219 292.148438 233.644531 374.609375 233.644531 374.609375 L 222.558594 391.207031 L 208.03125 391.207031 L 222.558594 373.148438 L 216.972656 298.164062 Z M 238.542969 291.113281 " fill-opacity="1" fill-rule="nonzero"/><g clip-path="url(#2d58e3b2e1)"><path fill="#311514" d="M 267.9375 84.824219 C 267.851562 80.785156 267.765625 76.742188 267.679688 72.617188 C 267.507812 65.5625 267.335938 58.597656 267.25 51.546875 C 267.164062 48.453125 267.421875 45.355469 266.734375 42.347656 C 264.757812 33.664062 254.445312 30.738281 245.589844 30.824219 C 241.292969 30.824219 236.738281 31.339844 233.042969 33.492188 C 228.660156 35.984375 227.285156 40.457031 226.941406 44.839844 C 226.683594 48.195312 226.683594 51.460938 226.511719 54.816406 C 226.253906 60.664062 225.996094 66.597656 225.738281 72.445312 C 225.738281 72.53125 225.738281 72.53125 225.738281 72.617188 C 225.738281 72.617188 225.394531 80.699219 225.394531 80.699219 C 225.394531 80.699219 267.9375 84.824219 267.9375 84.824219 Z M 267.9375 84.824219 " fill-opacity="1" fill-rule="nonzero"/></g><path fill="#f8ab94" d="M 239.230469 77.6875 C 239.058594 78.375 239.144531 100.5625 239.144531 100.5625 L 253.5 100.734375 L 253.585938 70.378906 Z M 239.230469 77.6875 " fill-opacity="1" fill-rule="nonzero"/><path fill="#311514" d="M 239.144531 82.417969 L 251.09375 73.390625 L 239.144531 73.90625 Z M 239.144531 82.417969 " fill-opacity="1" fill-rule="nonzero"/><path fill="#f8ab94" d="M 235.277344 39.335938 C 232.269531 40.113281 230.207031 42.605469 229.175781 45.527344 C 228.574219 47.25 228.660156 48.882812 228.746094 50.601562 C 228.832031 52.0625 228.832031 53.527344 228.917969 54.902344 C 229.003906 57.738281 229.089844 60.578125 229.261719 63.414062 C 229.261719 63.929688 229.261719 64.445312 229.347656 65.046875 C 229.433594 66.167969 229.777344 67.285156 230.121094 68.316406 C 232.613281 75.109375 240.949219 77.859375 247.480469 75.882812 C 252.039062 74.507812 255.820312 70.808594 257.28125 66.253906 C 257.367188 65.910156 257.539062 65.5625 257.539062 65.132812 C 257.539062 65.046875 257.625 65.046875 257.710938 65.046875 C 261.492188 67.371094 265.273438 64.101562 265.960938 60.234375 C 266.132812 58.941406 266.132812 57.824219 265.703125 56.878906 C 265.1875 55.503906 264.070312 54.386719 262.265625 53.871094 C 261.0625 53.527344 259.773438 53.527344 258.570312 53.957031 C 257.96875 54.214844 257.367188 54.472656 256.9375 54.988281 C 256.421875 55.589844 255.992188 56.449219 255.90625 56.621094 C 255.90625 56.621094 255.820312 56.707031 255.820312 56.707031 L 255.734375 56.707031 C 255.734375 56.792969 236.222656 48.195312 235.277344 39.335938 " fill-opacity="1" fill-rule="nonzero"/><path fill="#311514" d="M 243.097656 59.199219 C 243.097656 59.371094 243.132812 59.535156 243.195312 59.695312 C 243.261719 59.851562 243.355469 59.992188 243.476562 60.113281 C 243.597656 60.234375 243.738281 60.328125 243.894531 60.394531 C 244.054688 60.457031 244.21875 60.492188 244.386719 60.492188 C 244.558594 60.492188 244.722656 60.457031 244.882812 60.394531 C 245.039062 60.328125 245.179688 60.234375 245.300781 60.113281 C 245.421875 59.992188 245.515625 59.851562 245.578125 59.695312 C 245.644531 59.535156 245.675781 59.371094 245.675781 59.199219 C 245.675781 59.03125 245.644531 58.867188 245.578125 58.707031 C 245.515625 58.550781 245.421875 58.410156 245.300781 58.289062 C 245.179688 58.167969 245.039062 58.074219 244.882812 58.007812 C 244.722656 57.945312 244.558594 57.910156 244.386719 57.910156 C 244.21875 57.910156 244.054688 57.945312 243.894531 58.007812 C 243.738281 58.074219 243.597656 58.167969 243.476562 58.289062 C 243.355469 58.410156 243.261719 58.550781 243.195312 58.707031 C 243.132812 58.867188 243.097656 59.03125 243.097656 59.199219 Z M 243.097656 59.199219 " fill-opacity="1" fill-rule="nonzero"/><path fill="#311514" d="M 231.582031 59.199219 C 231.582031 59.371094 231.613281 59.535156 231.679688 59.695312 C 231.746094 59.851562 231.839844 59.992188 231.960938 60.113281 C 232.082031 60.234375 232.21875 60.328125 232.378906 60.394531 C 232.535156 60.457031 232.699219 60.492188 232.871094 60.492188 C 233.042969 60.492188 233.207031 60.457031 233.363281 60.394531 C 233.523438 60.328125 233.660156 60.234375 233.78125 60.113281 C 233.902344 59.992188 233.996094 59.851562 234.0625 59.695312 C 234.128906 59.535156 234.160156 59.371094 234.160156 59.199219 C 234.160156 59.03125 234.128906 58.867188 234.0625 58.707031 C 233.996094 58.550781 233.902344 58.410156 233.78125 58.289062 C 233.660156 58.167969 233.523438 58.074219 233.363281 58.007812 C 233.207031 57.945312 233.042969 57.910156 232.871094 57.910156 C 232.699219 57.910156 232.535156 57.945312 232.378906 58.007812 C 232.21875 58.074219 232.082031 58.167969 231.960938 58.289062 C 231.839844 58.410156 231.746094 58.550781 231.679688 58.707031 C 231.613281 58.867188 231.582031 59.03125 231.582031 59.199219 Z M 231.582031 59.199219 " fill-opacity="1" fill-rule="nonzero"/><path fill="#311514" d="M 236.222656 64.1875 C 236.050781 64.1875 235.878906 64.1875 235.621094 64.101562 C 235.535156 64.101562 235.449219 64.101562 235.363281 64.101562 C 235.363281 64.015625 235.363281 64.015625 235.363281 63.929688 C 235.363281 63.84375 235.449219 63.671875 235.449219 63.585938 C 235.535156 63.328125 235.535156 63.070312 235.621094 62.8125 C 235.707031 62.296875 235.878906 61.78125 235.964844 61.265625 C 236.050781 60.835938 235.449219 60.664062 235.363281 61.09375 C 235.191406 61.953125 234.933594 62.726562 234.761719 63.585938 C 234.675781 63.929688 234.417969 64.53125 234.933594 64.703125 C 235.105469 64.789062 235.363281 64.789062 235.535156 64.789062 L 236.136719 64.875 C 236.308594 64.875 236.480469 64.703125 236.480469 64.53125 C 236.566406 64.359375 236.394531 64.1875 236.222656 64.1875 Z M 236.222656 64.1875 " fill-opacity="1" fill-rule="nonzero"/><path fill="#311514" d="M 228.917969 54.902344 C 228.746094 54.988281 228.660156 55.074219 228.660156 55.246094 C 228.660156 55.417969 228.746094 55.503906 228.917969 55.589844 C 229.347656 55.847656 229.949219 55.933594 230.464844 55.933594 C 231.066406 56.019531 231.582031 56.019531 232.183594 56.019531 C 233.042969 56.019531 233.902344 55.933594 234.675781 55.589844 C 234.761719 55.503906 234.933594 55.503906 235.019531 55.417969 C 235.277344 55.160156 235.105469 54.902344 234.847656 54.730469 C 234.074219 54.300781 232.785156 54.300781 231.925781 54.300781 C 230.980469 54.300781 229.777344 54.386719 228.917969 54.902344 Z M 228.917969 54.902344 " fill-opacity="1" fill-rule="nonzero"/><path fill="#311514" d="M 242.066406 54.730469 C 241.894531 54.816406 241.808594 54.902344 241.808594 55.074219 C 241.808594 55.246094 241.894531 55.417969 241.980469 55.503906 C 242.410156 55.761719 243.097656 55.933594 243.527344 56.019531 C 244.128906 56.105469 244.730469 56.191406 245.332031 56.191406 C 246.191406 56.277344 247.136719 56.191406 248 55.933594 C 248.171875 55.933594 248.257812 55.847656 248.34375 55.761719 C 248.601562 55.503906 248.515625 55.246094 248.257812 55.074219 C 247.480469 54.558594 246.191406 54.472656 245.246094 54.386719 C 244.214844 54.300781 243.011719 54.300781 242.066406 54.730469 Z M 242.066406 54.730469 " fill-opacity="1" fill-rule="nonzero"/><path fill="#311514" d="M 262.007812 55.761719 C 260.976562 56.277344 260.289062 57.308594 259.773438 58.339844 C 259.171875 59.546875 258.742188 60.921875 258.398438 62.210938 C 258.3125 62.554688 258.570312 62.726562 258.828125 62.726562 C 258.828125 62.726562 258.828125 62.726562 258.914062 62.726562 L 259 62.726562 C 259.085938 62.726562 259.171875 62.726562 259.34375 62.640625 C 260.03125 61.953125 260.546875 61.265625 261.0625 60.40625 C 261.234375 59.976562 261.492188 59.546875 261.40625 59.113281 C 261.40625 58.683594 261.234375 58.339844 260.890625 58.167969 C 261.320312 57.480469 261.75 56.878906 262.4375 56.535156 C 262.953125 56.277344 262.4375 55.503906 262.007812 55.761719 Z M 262.007812 55.761719 " fill-opacity="1" fill-rule="nonzero"/><path fill="#311514" d="M 234.847656 66.683594 C 236.910156 67.972656 239.574219 68.058594 241.722656 66.855469 C 241.980469 66.683594 242.238281 67.113281 241.980469 67.285156 C 239.746094 68.574219 236.824219 68.488281 234.675781 67.113281 C 234.246094 66.941406 234.589844 66.511719 234.847656 66.683594 Z M 234.847656 66.683594 " fill-opacity="1" fill-rule="nonzero"/><path fill="#d4e6f1" d="M 244.386719 64.015625 C 247.652344 64.015625 250.320312 61.351562 250.320312 58.082031 C 250.320312 54.816406 247.652344 52.148438 244.386719 52.148438 C 241.121094 52.148438 238.457031 54.816406 238.457031 58.082031 C 238.457031 61.351562 241.035156 64.015625 244.386719 64.015625 Z M 244.386719 52.578125 C 247.394531 52.578125 249.890625 55.074219 249.890625 58.082031 C 249.890625 61.09375 247.394531 63.585938 244.386719 63.585938 C 241.378906 63.585938 238.886719 61.09375 238.886719 58.082031 C 238.886719 55.074219 241.292969 52.578125 244.386719 52.578125 Z M 244.386719 52.578125 " fill-opacity="1" fill-rule="nonzero"/><path fill="#d4e6f1" d="M 230.121094 64.1875 C 233.386719 64.1875 236.050781 61.523438 236.050781 58.253906 C 236.050781 54.988281 233.386719 52.320312 230.121094 52.320312 C 226.855469 52.320312 224.191406 54.988281 224.191406 58.253906 C 224.191406 61.523438 226.855469 64.1875 230.121094 64.1875 Z M 230.121094 52.75 C 233.128906 52.75 235.621094 55.246094 235.621094 58.253906 C 235.621094 61.265625 233.128906 63.757812 230.121094 63.757812 C 227.113281 63.757812 224.621094 61.265625 224.621094 58.253906 C 224.621094 55.246094 227.113281 52.75 230.121094 52.75 Z M 230.121094 52.75 " fill-opacity="1" fill-rule="nonzero"/><path fill="#d4e6f1" d="M 235.964844 58.339844 L 238.371094 58.339844 C 238.714844 58.339844 238.714844 58.855469 238.371094 58.855469 L 235.964844 58.855469 C 235.621094 58.855469 235.621094 58.339844 235.964844 58.339844 Z M 235.964844 58.339844 " fill-opacity="1" fill-rule="nonzero"/><path fill="#d4e6f1" d="M 250.0625 56.878906 C 252.039062 56.449219 254.101562 56.019531 256.078125 55.503906 C 256.421875 55.417969 256.507812 55.933594 256.25 56.019531 C 254.273438 56.535156 252.296875 57.050781 250.234375 57.394531 C 249.890625 57.480469 249.804688 56.964844 250.0625 56.878906 Z M 250.0625 56.878906 " fill-opacity="1" fill-rule="nonzero"/><path fill="#d4e6f1" d="M 224.621094 57.910156 C 225.910156 57.652344 227.285156 57.394531 228.660156 57.136719 C 229.003906 57.050781 229.089844 57.566406 228.832031 57.652344 C 227.457031 57.910156 226.167969 58.167969 224.792969 58.425781 C 224.449219 58.425781 224.277344 57.996094 224.621094 57.910156 Z M 224.621094 57.910156 " fill-opacity="1" fill-rule="nonzero"/><path fill="#d4e6f1" d="M 268.96875 134.441406 C 268.96875 134.441406 203.90625 127.90625 203.90625 127.90625 C 205.023438 123.863281 206.140625 119.738281 207.257812 115.695312 C 208.804688 110.105469 209.664062 103.65625 213.535156 99.101562 C 216.285156 95.832031 220.152344 93.339844 224.363281 92.394531 L 236.566406 88.523438 L 238.886719 84.394531 L 244.730469 97.636719 L 254.273438 83.105469 C 254.273438 83.105469 259.945312 88.523438 259.945312 88.523438 C 268.453125 91.445312 284.355469 93.855469 285.558594 105.292969 C 285.988281 109.332031 288.136719 122.746094 290.113281 134.613281 C 284.183594 138.398438 278.335938 142.351562 272.40625 146.136719 Z M 268.96875 134.441406 " fill-opacity="1" fill-rule="nonzero"/><path fill="#5c778c" d="M 270.945312 91.878906 C 270.945312 91.878906 261.148438 117.414062 268.96875 134.441406 L 263.8125 164.195312 L 274.726562 198.761719 C 274.726562 198.761719 236.222656 207.960938 207.085938 197.042969 L 217.316406 162.644531 C 217.316406 162.644531 217.316406 117.328125 217.316406 117.328125 C 217.316406 115.867188 218.777344 113.71875 219.292969 112.429688 C 220.925781 108.558594 223.503906 104.949219 224.019531 100.734375 C 224.105469 99.875 223.847656 92.566406 224.363281 92.394531 C 224.363281 92.394531 232.355469 89.8125 232.355469 89.8125 C 232.355469 89.8125 235.191406 107.011719 240.949219 116.210938 C 240.949219 116.210938 254.273438 95.488281 262.007812 89.125 Z M 270.945312 91.878906 " fill-opacity="1" fill-rule="nonzero"/><path fill="#5c778c" d="M 272.75 199.191406 C 272.75 199.191406 280.140625 228.429688 277.5625 252.761719 L 275.414062 301.347656 C 275.414062 301.347656 268.539062 303.582031 265.53125 302.378906 L 263.46875 273.402344 L 260.03125 303.582031 C 260.03125 303.582031 233.300781 311.40625 210.78125 300.488281 C 210.78125 300.488281 204.679688 227.394531 210.78125 197.558594 C 210.78125 197.558594 257.109375 188.703125 272.75 199.191406 Z M 272.75 199.191406 " fill-opacity="1" fill-rule="nonzero"/><path fill="#d4e6f1" d="M 253.929688 157.316406 C 254.273438 157.144531 254.617188 156.886719 254.960938 156.714844 L 274.984375 155.164062 L 272.40625 146.136719 C 278.335938 142.351562 284.183594 138.398438 290.113281 134.613281 C 291.917969 145.449219 293.550781 154.90625 293.550781 154.90625 C 293.550781 154.90625 297.675781 172.878906 280.054688 173.910156 C 262.351562 174.941406 239.316406 172.707031 239.316406 172.707031 L 239.316406 158.003906 L 255.132812 156.714844 C 254.617188 156.972656 254.273438 157.144531 253.929688 157.316406 Z M 253.929688 157.316406 " fill-opacity="1" fill-rule="nonzero"/><path fill="#36455a" d="M 246.449219 116.382812 L 186.289062 112.257812 C 183.796875 112.085938 181.734375 114.148438 181.820312 116.640625 L 183.796875 156.628906 C 183.882812 159.035156 185.859375 161.011719 188.265625 161.097656 L 248.171875 164.796875 C 251.007812 164.96875 253.414062 162.644531 253.242188 159.722656 L 250.835938 120.683594 C 250.664062 118.449219 248.773438 116.46875 246.449219 116.382812 Z M 246.449219 116.382812 " fill-opacity="1" fill-rule="nonzero"/><path fill="#36455a" d="M 249.03125 164.882812 L 278.078125 160.839844 L 278.078125 157.402344 L 247.738281 155.851562 Z M 249.03125 164.882812 " fill-opacity="1" fill-rule="nonzero"/><path fill="#f8ab94" d="M 180.359375 130.398438 C 180.875 130.3125 187.40625 129.367188 189.898438 129.023438 C 190.671875 128.9375 191.53125 129.453125 191.617188 130.226562 C 191.703125 130.660156 191.53125 131.089844 191.015625 131.433594 C 190.15625 132.121094 187.40625 132.808594 185.34375 133.324219 C 185.171875 133.410156 185.171875 133.667969 185.429688 133.667969 L 191.789062 133.152344 C 191.875 133.152344 191.875 133.152344 191.960938 133.238281 C 192.21875 133.582031 193.679688 135.214844 192.304688 136.675781 C 192.21875 136.761719 192.21875 136.847656 192.304688 136.9375 C 192.734375 137.28125 193.851562 138.398438 192.476562 140.03125 C 192.476562 140.03125 192.390625 140.117188 192.390625 140.117188 C 191.875 140.203125 187.921875 141.320312 185.945312 141.835938 C 185.773438 141.921875 185.773438 142.179688 185.945312 142.179688 L 190.929688 142.351562 C 190.929688 142.351562 191.015625 142.351562 191.015625 142.351562 C 191.273438 142.523438 192.476562 143.558594 191.1875 144.675781 L 184.226562 146.050781 C 184.054688 146.050781 180.875 146.222656 181.390625 142.953125 C 181.390625 142.867188 181.390625 142.867188 181.390625 142.867188 C 181.132812 142.609375 180.015625 141.0625 180.960938 138.742188 C 180.960938 138.65625 180.960938 138.65625 180.960938 138.570312 C 180.703125 138.226562 179.5 137.453125 180.101562 135.214844 C 180.101562 135.128906 180.101562 135.042969 180.101562 135.042969 C 179.671875 134.183594 178.636719 131.347656 180.359375 130.398438 Z M 180.359375 130.398438 " fill-opacity="1" fill-rule="nonzero"/><path fill="#311514" d="M 181.648438 138.054688 C 185.085938 137.539062 188.523438 137.023438 191.960938 136.503906 C 192.390625 136.417969 192.390625 137.023438 192.046875 137.109375 C 188.609375 137.625 185.171875 138.140625 181.734375 138.65625 C 181.304688 138.742188 181.304688 138.140625 181.648438 138.054688 Z M 181.648438 138.054688 " fill-opacity="1" fill-rule="nonzero"/><path fill="#311514" d="M 180.101562 134.355469 C 181.734375 133.925781 183.367188 133.582031 184.914062 133.152344 C 185.257812 133.066406 185.515625 133.667969 185.085938 133.753906 C 183.453125 134.183594 181.90625 134.613281 180.273438 134.957031 C 179.929688 135.042969 179.757812 134.527344 180.101562 134.355469 Z M 180.101562 134.355469 " fill-opacity="1" fill-rule="nonzero"/><path fill="#311514" d="M 181.90625 142.09375 C 183.109375 141.921875 184.226562 141.75 185.429688 141.664062 C 185.859375 141.664062 185.859375 142.265625 185.515625 142.265625 C 184.3125 142.351562 183.195312 142.4375 181.992188 142.695312 C 181.5625 142.78125 181.476562 142.179688 181.90625 142.09375 Z M 181.90625 142.09375 " fill-opacity="1" fill-rule="nonzero"/><path fill="#f8ab94" d="M 210.695312 163.078125 L 214.824219 164.453125 L 219.378906 165.140625 L 228.316406 165.742188 C 228.316406 165.742188 229.433594 164.796875 229.347656 163.851562 C 229.347656 162.820312 228.488281 161.269531 227.714844 160.753906 C 226.941406 160.238281 223.847656 157.574219 223.847656 157.574219 C 223.503906 156.542969 224.792969 156.28125 224.792969 156.28125 C 224.792969 156.28125 229.691406 158.433594 230.292969 158.777344 C 230.894531 159.121094 233.042969 159.808594 233.816406 161.097656 C 234.417969 162.128906 235.535156 162.820312 236.566406 163.335938 C 236.824219 163.421875 239.144531 164.453125 239.144531 164.539062 C 238.886719 167.804688 239.402344 169.527344 239.144531 172.792969 C 234.332031 171.847656 229.519531 171.675781 224.707031 171.246094 L 214.136719 166.6875 C 214.136719 166.6875 209.148438 164.625 209.40625 163.9375 C 209.664062 163.164062 210.695312 163.078125 210.695312 163.078125 Z M 210.695312 163.078125 " fill-opacity="1" fill-rule="nonzero"/><path fill="#311514" d="M 233.644531 374.609375 L 233.644531 399.890625 C 233.644531 400.75 232.957031 401.4375 232.097656 401.4375 L 227.371094 401.4375 L 226.339844 397.570312 L 223.847656 400.664062 C 223.503906 401.09375 222.902344 401.351562 222.300781 401.351562 L 202.875 401.351562 C 201.070312 401.351562 200.210938 399.203125 201.414062 397.914062 L 208.03125 391.207031 L 222.558594 391.207031 Z M 233.644531 374.609375 " fill-opacity="1" fill-rule="nonzero"/><path fill="#311514" d="M 214.996094 200.136719 C 229.433594 203.75 244.472656 203.664062 259.085938 201.339844 C 263.210938 200.652344 267.335938 199.878906 271.375 198.933594 C 271.976562 198.761719 272.320312 199.792969 271.632812 199.878906 C 257.109375 203.320312 241.980469 205.039062 227.113281 203.320312 C 222.902344 202.804688 218.777344 202.117188 214.738281 201.082031 C 214.050781 200.910156 214.308594 199.964844 214.996094 200.136719 Z M 214.996094 200.136719 " fill-opacity="1" fill-rule="nonzero"/><path fill="#311514" d="M 266.992188 174.167969 L 239.230469 172.707031 L 268.367188 178.554688 Z M 266.992188 174.167969 " fill-opacity="1" fill-rule="nonzero"/><path fill="#311514" d="M 278.25 155.25 C 282.117188 155.421875 285.988281 155.9375 289.769531 156.886719 C 290.113281 156.972656 289.941406 157.488281 289.597656 157.402344 C 285.902344 156.542969 282.03125 155.9375 278.25 155.765625 C 277.90625 155.765625 277.90625 155.25 278.25 155.25 Z M 278.25 155.25 " fill-opacity="1" fill-rule="nonzero"/><path fill="#311514" d="M 270.34375 126.359375 C 270.429688 126.015625 270.945312 126.1875 270.859375 126.53125 C 270.34375 128.9375 269.828125 131.347656 269.398438 133.667969 C 269.3125 134.011719 268.796875 133.839844 268.882812 133.496094 C 269.3125 131.089844 269.828125 128.679688 270.34375 126.359375 Z M 270.34375 126.359375 " fill-opacity="1" fill-rule="nonzero"/><path fill="#311514" d="M 255.90625 160.238281 C 261.320312 159.464844 266.734375 158.777344 272.148438 158.175781 C 272.492188 158.175781 272.492188 158.691406 272.148438 158.691406 C 266.734375 159.292969 261.40625 159.980469 256.078125 160.753906 C 255.734375 160.753906 255.5625 160.324219 255.90625 160.238281 Z M 255.90625 160.238281 " fill-opacity="1" fill-rule="nonzero"/><path fill="#311514" d="M 253.15625 156.109375 C 253.328125 158.519531 253.585938 160.925781 253.84375 163.25 C 253.84375 163.59375 253.414062 163.59375 253.328125 163.25 C 253.070312 160.839844 252.8125 158.433594 252.640625 156.109375 C 252.640625 155.765625 253.15625 155.765625 253.15625 156.109375 Z M 253.15625 156.109375 " fill-opacity="1" fill-rule="nonzero"/><path fill="#311514" d="M 228.488281 374.78125 C 229.433594 374.4375 230.121094 373.578125 230.292969 372.632812 C 230.292969 372.460938 230.464844 372.460938 230.636719 372.460938 C 230.808594 372.460938 230.808594 372.632812 230.808594 372.804688 C 230.636719 373.921875 229.777344 374.953125 228.660156 375.296875 C 228.488281 375.382812 228.402344 375.210938 228.316406 375.125 C 228.230469 374.953125 228.316406 374.867188 228.488281 374.78125 Z M 228.488281 374.78125 " fill-opacity="1" fill-rule="nonzero"/><path fill="#311514" d="M 217.402344 303.152344 L 237.339844 309.515625 L 237.511719 306.25 Z M 217.402344 303.152344 " fill-opacity="1" fill-rule="nonzero"/></svg>